<svg width="512" height="512" viewBox="0 0 512 512" fill="none" xmlns="http://www.w3.org/2000/svg">
  <rect width="512" height="512" rx="256" fill="#F3F4F6"/>
  <path d="M256 128C309.019 128 352 170.981 352 224C352 277.019 309.019 320 256 320C202.981 320 160 277.019 160 224C160 170.981 202.981 128 256 128ZM256 352C362.039 352 448 394.981 448 448V480H64V448C64 394.981 149.961 352 256 352Z" fill="#4F46E5"/>
  <path d="M256 160C220.654 160 192 188.654 192 224C192 259.346 220.654 288 256 288C291.346 288 320 259.346 320 224C320 188.654 291.346 160 256 160ZM256 384C197.961 384 147.199 406.891 112 441.369V448H400V441.369C364.801 406.891 314.039 384 256 384Z" fill="#6366F1"/>
</svg>